<?xml version="1.0" standalone="no"?><!DOCTYPE svg PUBLIC "-//W3C//DTD SVG 1.1//EN" "http://www.w3.org/Graphics/SVG/1.1/DTD/svg11.dtd"><svg t="1728459931306" class="icon" viewBox="0 0 2730 1024" version="1.1" xmlns="http://www.w3.org/2000/svg" p-id="2655" xmlns:xlink="http://www.w3.org/1999/xlink" width="533.203125" height="200"><path d="M0 0h1832.569949v687.213731H0z" fill="#FFFFFF" p-id="2656"></path><path d="M292.833224 646.427596a19.471056 19.471056 0 0 1-6.162016-16.412955 18.749481 18.749481 0 0 1 5.051021-16.412954 20.994379 20.994379 0 0 1 15.141609-6.13911 20.135362 20.135362 0 0 1 15.233238 5.028114 24.132656 24.132656 0 0 1 6.162016 16.412955 23.53707 23.53707 0 0 1-5.039567 16.412954 21.02874 21.02874 0 0 1-15.244692 6.150563h-1.683673a20.169723 20.169723 0 0 1-13.457936-5.039567z m6.528531-29.183677a31.577471 31.577471 0 0 0-2.531238 12.690547 21.452522 21.452522 0 0 0 3.802583 12.679094 7.616619 7.616619 0 0 0 7.605165 3.791129 9.35756 9.35756 0 0 0 7.616619-5.039568 19.711581 19.711581 0 0 0 1.271346-12.690546 37.796755 37.796755 0 0 0-2.519784-12.690547 11.075595 11.075595 0 0 0-7.616619-3.791129h-0.881924a6.872137 6.872137 0 0 0-6.757602 5.05102z m34.360686 26.6868c2.531237 0 3.802583-1.271345 3.802583-2.50833 1.271345 0 1.271345-2.519784 0-6.150563l-2.531237-16.412954a9.575178 9.575178 0 0 0-2.531238-6.150563c-1.557684-1.683674-1.271345-1.271345-3.802582 0l-1.431695-6.425449 22.907124-2.50833a21.051647 21.051647 0 0 1 12.679093 0 12.86235 12.86235 0 0 1 5.039568 8.887965 8.395461 8.395461 0 0 1-1.271346 7.605165 13.744275 13.744275 0 0 1-6.162016 5.051021l10.102042 8.853603c1.271345 1.305706 2.50833 2.565598 3.802582 2.565598s2.531237 1.294253 3.802583 0v5.039568l-11.453562 2.199084-16.412955-16.412955-3.802583 1.271345 1.271346 5.039568a9.758435 9.758435 0 0 0 2.519783 6.162016s1.282799 1.294253 3.79113 0v6.150563l-19.035821 2.531237z m14.156603-35.231157a4.581425 4.581425 0 0 0-2.531237 1.259892c-1.271345 1.282799-1.271345 2.531237 0 5.051021l0.985006 7.49063h1.546231a82.465648 82.465648 0 0 0 8.865057-2.519784 11.453562 11.453562 0 0 0 1.294253-6.150563c0-1.259892-1.294253-3.802583-2.519784-3.802583a14.591838 14.591838 0 0 0-7.605165-1.317159z m-101.810714 37.796755l1.294252-6.162016c1.282799 1.271345 2.519784 0 3.79113 0a57.7145 57.7145 0 0 0 1.282798-6.162017l2.508331-16.401501v-7.616619c-1.282799 0-2.50833-1.271345-3.802583-1.271345v-5.291546l21.589965 2.531238a13.148689 13.148689 0 0 1 10.090588 5.039567 9.3232 9.3232 0 0 1 2.531237 10.090588 6.952312 6.952312 0 0 1-5.039567 7.639526 13.492296 13.492296 0 0 1-10.010414 2.187631l-7.605165-1.259892v11.522283c0 1.271345 1.271345 1.271345 3.791129 1.271346l-1.271345 5.039567z m19.058727-30.477929l-1.271345 8.876511h1.282799a7.124116 7.124116 0 0 0 7.605165-1.271345c1.282799 0 2.531237-2.554144 2.531237-5.039568a6.872137 6.872137 0 0 0-1.271345-5.039567 6.963766 6.963766 0 0 0-5.039567-2.519784h-2.519784c-1.294253 1.214078-1.294253 2.451062-1.294253 4.9823z m-36.765934 23.777595l-6.162017-20.330072-3.802582-1.282799-2.531238 5.051021c0 2.519784-1.271345 5.051021 0 6.150562 0 1.294253 1.271345 1.294253 2.531238 2.531238l-1.431696 5.53207-19.03582-6.150563 1.259892-5.039567c2.519784 1.271345 3.814036 1.271345 5.051021 0l2.519783-5.039567 5.039568-16.412955c0-3.779676 1.271345-5.039567 0-6.150563a2.714494 2.714494 0 0 0-2.496877-2.519784l1.271346-5.348813 21.578511 6.150563a15.611205 15.611205 0 0 1 10.090588 6.150563 10.789256 10.789256 0 0 1 2.531237 8.887964 9.0025 9.0025 0 0 1-5.051021 6.150563 10.617452 10.617452 0 0 1-7.605165 2.496876l5.039568 12.679094a4.69596 4.69596 0 0 0 1.282798 3.825489c1.271345 0 2.519784 1.282799 3.802583 1.282799l-2.531237 5.028114z m-6.368181-35.20825l-2.565598 7.605166 1.271346 1.271345h1.294252c3.802583 1.259892 6.345273 1.259892 7.605165 0 2.519784 0 3.791129-1.271345 5.039568-3.814036a9.277385 9.277385 0 0 0-1.271346-5.039568 18.600585 18.600585 0 0 0-5.039567-3.791129h-3.814036c-1.282799 1.248438-2.519784 2.473969-2.519784 3.768222z m158.608929 31.70346c2.496877-1.259892 3.802583-3.791129 3.802583-8.87651l-1.145356-32.82591 8.87651-2.496876 21.555604 25.381094a10.915245 10.915245 0 0 0 7.628073 3.791129l1.282799 5.051021-17.764475 6.150563-1.271346-5.039568a4.443982 4.443982 0 0 0 2.519784-1.271345v-2.634319c0-1.271345 0-1.271345-1.271345-1.271346l-3.928572-4.947939-11.453562 5.051021 1.282799 5.039568v1.271345a4.443982 4.443982 0 0 0 1.271345 2.565598h3.814036l2.496877 3.791129-15.244691 6.299459z m8.876511-20.181176l7.616619-2.519784-7.616619-10.090588z m-218.293442 6.150563a36.101628 36.101628 0 0 1-11.453562-12.66764 29.183676 29.183676 0 0 1 2.531237-17.775929 22.082468 22.082468 0 0 1 12.679094-11.453562 18.967099 18.967099 0 0 1 16.412954 1.282799 16.584758 16.584758 0 0 1 11.453563 12.679094 20.020827 20.020827 0 0 1-2.519784 16.412954 24.819869 24.819869 0 0 1-12.679093 12.679094 25.575804 25.575804 0 0 1-16.412955-1.225532v0.068722z m8.830697-35.402961a34.074347 34.074347 0 0 0-7.616619 10.090588 31.520203 31.520203 0 0 0-3.802583 12.679094 16.183883 16.183883 0 0 0 5.051021 7.616618 7.834237 7.834237 0 0 0 8.876511-1.282798 16.584758 16.584758 0 0 0 7.605165-10.079135 28.633905 28.633905 0 0 0 3.802583-12.690547 6.471263 6.471263 0 0 0-5.039568-6.150563 4.50125 4.50125 0 0 0-3.355893-1.454602 19.87193 19.87193 0 0 0-5.49771 1.488963z m246.377576 31.554564c2.50833-1.271345 2.50833-2.519784 3.802583-3.791129 0-1.145356-1.271345-2.439609-2.531238-6.150563l-11.453562-20.467516h-1.271345c-1.294253 1.271345-3.802583 2.542691-3.802583 5.028114-1.271345 1.374427-1.271345 3.802583-1.271345 7.639526h-3.836944l-2.70304-12.679093 28.061227-15.14161 11.453562 8.876511-2.519784 3.814036a19.539777 19.539777 0 0 0-7.605165-3.814036 8.395461 8.395461 0 0 0-7.616619 1.259892l11.453563 21.418161a17.775929 17.775929 0 0 0 3.802582 5.039568h3.791129l2.519784 3.802582-17.787382 8.876511z m33.009166-16.275512c1.282799-1.271345 2.531237-2.657226 2.531237-3.791129a66.55665 66.55665 0 0 0-2.531237-6.162017l-8.876511-13.973345-5.039567-5.051021a4.718868 4.718868 0 0 0-3.814036 1.271345l-2.50833-5.051021 16.412954-10.090588 2.519784 5.051021c-1.271345 0-1.271345 1.271345-2.519784 2.531237a11.453562 11.453562 0 0 0 3.802583 6.139109l8.876511 13.9848c1.271345 2.519784 2.519784 5.051021 3.802582 5.051021a4.707414 4.707414 0 0 0 3.802583-1.271346l2.519784 5.051021-16.412955 10.079135z m-318.683914-0.183257a20.501876 20.501876 0 0 1-11.453562-3.791129 22.219911 22.219911 0 0 1-7.616619-13.9848 28.164309 28.164309 0 0 1 5.051021-16.412954c5.039567-5.039567 8.991046-8.876511 15.141609-8.876511a17.546857 17.546857 0 0 1 15.244691 3.791129c1.271345 0 2.531237 1.305706 3.802583 2.565598 0 1.282799 1.271345 2.565598 1.271345 5.039568l2.496877-2.531238 2.531237 2.531238-5.039567 15.221784-5.039568-1.271346a27.751981 27.751981 0 0 0 1.271346-10.090588 6.963766 6.963766 0 0 0-3.791129-6.162016 7.513537 7.513537 0 0 0-8.876511-1.271346 26.789882 26.789882 0 0 0-10.090588 7.605165 22.746774 22.746774 0 0 0-5.039568 11.453563 11.453562 11.453562 0 0 0 3.814037 8.865057 17.718661 17.718661 0 0 0 7.605165 2.565598 18.325699 18.325699 0 0 0 8.887964-2.565598l2.531237 5.051021a15.634112 15.634112 0 0 1-12.598918 2.565598z m-8.406915-80.770521a237.982115 237.982115 0 0 1-1.947105-336.540017l1.947105-1.958559a243.411103 243.411103 0 0 1 341.808656 0.35506 236.939841 236.939841 0 0 1 70.86319 169.020217 236.962748 236.962748 0 0 1-70.86319 168.917135 243.342382 243.342382 0 0 1-341.820109 0.263432z m4.100376-334.134769a231.843006 231.843006 0 0 0-1.924199 327.846764l1.924199 1.912745a237.432344 237.432344 0 0 0 333.298659-0.286339 230.869453 230.869453 0 0 0 2.783216-326.426522c-0.927739-0.927739-1.844024-1.866931-2.783216-2.783216a237.397983 237.397983 0 0 0-333.298659-0.286339z m346.71078 398.400707a20.616412 20.616412 0 0 1-14.660559-10.090588 24.37318 24.37318 0 0 1-5.039568-15.130156 18.463142 18.463142 0 0 1 7.605166-15.256145 20.009373 20.009373 0 0 1 16.412954-3.814036 24.270098 24.270098 0 0 1 15.244692 8.876511 20.501876 20.501876 0 0 1 5.039567 16.412954 17.993546 17.993546 0 0 1-7.605165 13.973346 19.894838 19.894838 0 0 1-17.180344 4.925032z m-8.418368-35.506043a5.566431 5.566431 0 0 0-2.851937 3.367347 5.726781 5.726781 0 0 0 0.309246 4.317993 22.723867 22.723867 0 0 0 5.039568 11.453563 55.194716 55.194716 0 0 0 10.090588 8.887964 10.502917 10.502917 0 0 0 8.887964-1.271346 7.880051 7.880051 0 0 0 2.519784-8.87651 20.547691 20.547691 0 0 0-5.051021-11.453563 26.640986 26.640986 0 0 0-10.090588-7.605165 13.3434 13.3434 0 0 0-4.100376-0.847563 6.517077 6.517077 0 0 0-4.730321 2.050187zM97.950864 435.956937a230.995442 230.995442 0 0 0 79.293011 39.824036 162.800933 162.800933 0 0 0 58.894216 74.173269 221.156832 221.156832 0 0 1-42.939404-69.86673 377.314699 377.314699 0 0 0 42.194923 7.937319c18.463142 41.771141 45.344653 72.157442 76.212003 83.519375-2.748855 0-5.520617 0.16035-8.212204 0.16035h-0.893378A221.970035 221.970035 0 0 1 97.950864 435.956937z m170.658076 55.080181q10.308206 0.526864 20.811123 0.51541c98.981684 0 182.764492-32.986259 214.525219-78.697426a319.554385 319.554385 0 0 1-195.466492 59.673059 394.07126 394.07126 0 0 1-51.289051-3.367347 279.295114 279.295114 0 0 1-13.194504-34.486676 413.278884 413.278884 0 0 0 73.440241 3.436069c97.882142-3.98584 179.213887-40.19055 208.271575-87.619751v1.294253A220.939214 220.939214 0 0 1 352.769715 566.252661a165.091645 165.091645 0 0 1-84.229496-75.23845zM93.621417 562.518799a26.870057 26.870057 0 0 1-15.233237-10.090588l-11.190131-15.141609 3.802583-2.531237a4.707414 4.707414 0 0 0 3.814036 1.271345l5.039568-2.531237 12.679093-11.453562c3.802583-1.271345 5.051021-3.791129 5.051021-5.051021a3.98584 3.98584 0 0 0-1.271346-2.519784l3.710955-3.871304 12.679093 15.221784a22.746774 22.746774 0 0 1 6.150563 16.401501 24.052481 24.052481 0 0 1-8.613079 14.053521 24.762601 24.762601 0 0 1-16.412955 6.150563z m7.822783-34.05144l-16.516036 13.973346c-2.542691 1.259892-3.791129 2.519784-3.79113 3.791129a3.85985 3.85985 0 0 0 1.271346 2.531237 16.218244 16.218244 0 0 0 8.876511 5.039568 45.814249 45.814249 0 0 0 11.453562-5.039568c5.051021-3.791129 7.628072-7.605165 7.628072-10.102042a9.850063 9.850063 0 0 0-2.519784-10.090588c0-1.271345-1.282799-1.271345-2.531237-1.271345a10.308206 10.308206 0 0 0-3.882757 1.145356zM515.410298 557.628128a4.730321 4.730321 0 0 0 1.271346-3.825489c0-1.271345-1.271345-2.531237-3.79113-5.039568l-12.679093-11.453562c-2.565598-2.519784-3.814036-3.802583-5.039567-3.802583a4.718868 4.718868 0 0 0-3.802583 1.282799l-4.100375-2.54269 11.453562-12.702001 28.026867 7.605165-8.80779-8.979592a23.056021 23.056021 0 0 1-5.039567-3.791129c-1.282799 0-2.50833 1.248438-3.802583 2.519783l-3.802582-3.814036 10.090588-10.090588 3.802583 2.519783c-1.271345 1.259892-2.542691 2.519784-1.271346 3.791129 0 1.282799 1.271345 2.565598 3.802583 5.051021l21.441068 20.410248-5.039567 5.039568-36.651399-8.865058 15.244691 13.961893c2.565598 2.50833 3.802583 3.802583 5.039568 3.802582a4.673053 4.673053 0 0 0 3.814036-1.282799l3.802582 2.531238-10.102041 11.453562z m-464.671018-39.400254l5.039568-3.791129 2.496876 2.519784a21.429615 21.429615 0 0 0 6.162017-2.519784l13.973346-10.010413 5.039567-5.039567a4.581425 4.581425 0 0 0-1.271345-3.802583l3.917118-2.703041 11.453562 15.244692-3.688047 3.791129c-1.271345-1.248438-2.519784-2.531237-3.802583-2.531238s-2.565598 1.259892-5.039567 2.531238l-13.973346 10.090588c-2.542691 1.294253-5.039567 3.791129-5.039567 5.039567a9.529364 9.529364 0 0 0 1.271345 3.791129l-5.01666 2.565598z m-7.387547-15.027073l10.090588-19.03582-2.519784-3.802583-3.802582 2.531237a13.389214 13.389214 0 0 0-6.150563 3.791129 4.581425 4.581425 0 0 0 1.271345 3.791129l-5.039567 2.519784-8.887964-16.412955 3.814036-2.519783c1.282799 1.259892 2.50833 2.519784 3.802583 2.519783s2.50833-1.294253 6.162016-2.519783l13.961892-7.616619c3.802583-2.519784 5.039567-3.814036 6.150563-3.814036a9.758435 9.758435 0 0 0-1.202624-5.119743l4.844857-2.50833s0.343607 0.229071 10.090588 20.330073a31.760728 31.760728 0 0 1 3.791129 11.453562 8.017494 8.017494 0 0 1-6.150563 7.639526 8.395461 8.395461 0 0 1-7.605165 1.259892c-2.531237 0-3.802583-1.259892-6.162016-3.791129l-6.162017 12.679093c0 1.259892-1.271345 2.519784-1.271345 3.791129a4.650146 4.650146 0 0 0 1.271345 3.791129l-5.051021 2.531238zM63.223663 474.062939l-7.52499 3.768222h1.271345v1.294252a14.992713 14.992713 0 0 0 6.162017 6.150563 3.871304 3.871304 0 0 0 5.039567 0c2.531237-1.294253 2.531237-2.519784 3.802583-3.814036a11.178677 11.178677 0 0 0-1.271346-6.162017c-1.271345-1.271345-2.531237-2.519784-3.802582-2.519783a9.67826 9.67826 0 0 0-3.791129 1.248438z m480.064605 26.423368a30.260311 30.260311 0 0 1-12.679093-12.679094 15.53103 15.53103 0 0 1 1.282799-16.412954 24.819869 24.819869 0 0 1 11.453562-11.453563 23.010206 23.010206 0 0 1 17.787382 2.565598 22.6666 22.6666 0 0 1 12.679094 11.453563 24.670973 24.670973 0 0 1-1.271346 16.412954 16.630572 16.630572 0 0 1-12.679093 11.453562 25.106208 25.106208 0 0 1-16.516037-1.328613z m24.14411-12.713454a8.017494 8.017494 0 0 0-1.271346-8.876511 23.34236 23.34236 0 0 0-10.090588-7.605165 25.33528 25.33528 0 0 0-12.679093-2.531238c-3.802583 0-5.039567 2.531237-7.616619 5.039568-1.271345 2.531237 0 5.051021 1.271345 8.887964a33.971265 33.971265 0 0 0 10.090588 7.605165 31.485842 31.485842 0 0 0 12.66764 2.519784 6.986673 6.986673 0 0 0 7.582258-5.062475z m860.460312 56.992925a62.673892 62.673892 0 0 1-48.288218-22.18555 96.301551 96.301551 0 0 1-16.871097-60.06248 81.320291 81.320291 0 0 1 19.574137-56.122455 71.73366 71.73366 0 0 1 53.53395-22.197003 65.800715 65.800715 0 0 1 15.679927 2.577051 40.156189 40.156189 0 0 1 15.565391 6.322367v0.206164l3.928572-6.33382h13.034153l14.294046 50.842362-16.871097 7.822783a105.074979 105.074979 0 0 0-20.914205-29.996879 38.724494 38.724494 0 0 0-24.808415-10.376927 26.858603 26.858603 0 0 0-24.85423 15.679926 82.465648 82.465648 0 0 0-9.16285 43.053941 97.847782 97.847782 0 0 0 7.822783 43.031033 29.985426 29.985426 0 0 0 26.114122 14.37422 27.488549 27.488549 0 0 0 20.856936-7.84569 21.841943 21.841943 0 0 0 7.834237-18.325699 16.034987 16.034987 0 0 0-3.962933-11.785716 17.180343 17.180343 0 0 0-13.034153-3.905665v-18.325699h66.579557v18.325699a24.327366 24.327366 0 0 0-13.045608 6.322367 37.613498 37.613498 0 0 0-2.588505 15.679926v40.465436h-22.277178l-5.17701-11.728448a62.765521 62.765521 0 0 1-20.914205 10.376927 61.047486 61.047486 0 0 1-21.555604 3.905665z m-652.509437-3.573511a44.359646 44.359646 0 0 1-19.574138-7.84569l-2.599959 9.162849h-13.160143l-16.985633-56.271351 15.668474-6.310912a67.461481 67.461481 0 0 0 24.819869 31.302585 42.824869 42.824869 0 0 0 28.885884 11.739901 32.069974 32.069974 0 0 0 19.574137-6.33382 14.477303 14.477303 0 0 0 6.322367-13.034153c0-9.16285-10.376927-15.679927-31.325493-20.868391a14.133696 14.133696 0 0 0-6.322366-1.328613 188.296562 188.296562 0 0 1-24.831323-7.822783 117.719712 117.719712 0 0 1-11.728448-5.17701 30.54665 30.54665 0 0 1-13.057061-15.668473 41.748234 41.748234 0 0 1-3.905664-18.3257 48.104961 48.104961 0 0 1 14.37422-35.276971 54.576224 54.576224 0 0 1 37.968559-14.374221 75.59351 75.59351 0 0 1 16.882551 2.588505 107.468774 107.468774 0 0 1 16.88255 9.16285l-0.148896-0.171803 2.588505-9.16285h13.125782l13.034154 45.711167-15.679927 4.913578a85.111421 85.111421 0 0 0-19.574137-23.50271 42.870683 42.870683 0 0 0-24.831323-7.822783 27.729074 27.729074 0 0 0-15.565391 3.905665 13.847357 13.847357 0 0 0-6.33382 11.728448c0 7.857144 13.045607 14.374221 36.55977 20.902751a48.104961 48.104961 0 0 1 7.834237 1.305706 86.840908 86.840908 0 0 1 36.55977 16.871097 43.008126 43.008126 0 0 1 10.376928 28.862976 49.158689 49.158689 0 0 1-15.668473 39.148276 50.315499 50.315499 0 0 1-39.159729 14.374221 53.900464 53.900464 0 0 1-20.948566-2.645773z m246.446297 0v-15.679927h1.31716c3.928572 0 7.84569 0 9.162849-1.305706a6.872137 6.872137 0 0 0 2.599959-5.188464v-2.634319a4.6616 4.6616 0 0 0-1.305706-2.588505l-6.33382-16.882551H991.878485l-5.17701 16.882551v3.894211c0 2.50833 0 5.188464 2.588505 6.33382 1.305706 1.328613 5.188464 1.328613 10.376927 1.328613v15.840277h-49.616831v-15.679927a25.621619 25.621619 0 0 0 18.268431-18.3257 4.134736 4.134736 0 0 0 1.31716-2.599958l33.753648-87.528122H1030.820596l32.642652 91.365065v1.31716c3.894211 9.231571 9.254478 15.565391 15.668474 15.565391v15.817369z m-23.411081-60.131202h23.502709l-11.842983-35.380053z m704.955299 60.06248v-15.679926c5.188464 0 9.16285-1.328613 10.376927-3.894212 2.565598-2.645773 2.565598-9.16285 2.565598-18.325699v-48.311125c0-10.376927 0-15.668473-2.565598-18.3257-1.31716-2.588505-5.188464-3.894211-10.376927-3.894211v-15.576844h57.416707a74.539783 74.539783 0 0 1 50.956898 15.473762 58.184096 58.184096 0 0 1 16.871097 45.68826 59.455441 59.455441 0 0 1-16.871097 46.959604 74.287804 74.287804 0 0 1-50.933991 15.679927z m57.462521-108.373605c-5.17701 0-9.16285 0-10.376927 2.634319-2.634319 1.282799-2.634319 5.188464-2.63432 13.034154v61.368186c0 7.834237 0 11.728448 2.63432 13.045607 1.328613 2.588505 5.188464 2.588505 10.376927 2.588505a32.86027 32.86027 0 0 0 26.114122-11.739901 56.637865 56.637865 0 0 0 10.376927-35.265518 55.332159 55.332159 0 0 0-10.376927-33.971265 32.837363 32.837363 0 0 0-25.197837-11.728448z m-122.736372 108.373605h-32.631199l-37.968559-53.545403h-11.728447v15.679927a28.805709 28.805709 0 0 0 3.928572 18.325699c1.305706 2.588505 5.188464 3.917118 10.376927 3.917118v15.679927h-58.733867v-15.679927a16.183883 16.183883 0 0 0 11.739901-3.836943 48.746361 48.746361 0 0 0 2.611412-18.394421v-48.3913a48.402754 48.402754 0 0 0-2.588505-18.325699 16.034987 16.034987 0 0 0-11.728447-3.905665v-15.553938h67.724913a64.139948 64.139948 0 0 1 35.276971 7.822783 28.84007 28.84007 0 0 1 13.034154 26.091215 36.055814 36.055814 0 0 1-6.33382 20.86839 46.283845 46.283845 0 0 1-20.902751 11.728448l23.422535 31.245318a17.627032 17.627032 0 0 0 9.16285 7.857143 24.636612 24.636612 0 0 0 8.441275 2.462516q6.872137-0.561225 8.532904-3.791129c2.577051-2.577051 2.577051-9.16285 2.577051-18.325699v-48.35694c0-9.16285 0-15.65702-2.577051-18.325699-1.305706-2.622866-5.17701-3.905665-11.762809-3.905665v-15.576845h60.062481v15.576845a16.034987 16.034987 0 0 0-11.728448 3.905665 48.471475 48.471475 0 0 0-2.542691 18.325699v48.334032a48.448568 48.448568 0 0 0 2.588505 18.3257 16.138069 16.138069 0 0 0 11.728448 3.905665v15.714287z m-78.365273-105.842368a17.581218 17.581218 0 0 0-3.894211 13.079968l0.137443 22.174097h6.33382a57.439614 57.439614 0 0 0 24.785508-3.928572 17.077261 17.077261 0 0 0 9.16285-15.565391 14.397128 14.397128 0 0 0-7.822783-13.034154 25.507083 25.507083 0 0 0-18.325699-5.188464h-1.351521a16.871097 16.871097 0 0 0-9.16285 2.439609z m-379.857389 105.739286v-15.737194a16.034987 16.034987 0 0 0 11.728447-3.928572 48.311125 48.311125 0 0 0 2.599959-18.3257v-48.334032a48.311125 48.311125 0 0 0-2.599959-18.325699 15.954812 15.954812 0 0 0-11.728447-3.894212v-15.576844h97.824874l15.760102 37.796755-10.376928 5.188464a79.235743 79.235743 0 0 0-20.902751-20.868391 41.54207 41.54207 0 0 0-24.819869-6.333819c-5.188464 0-7.84569 0-10.376927 2.645772a23.880677 23.880677 0 0 0-2.588505 13.034154v16.882551h5.360267a17.512497 17.512497 0 0 0 13.034154-3.905665 37.624952 37.624952 0 0 0 3.940025-14.385674h11.728448v54.851109h-11.728448a44.519996 44.519996 0 0 0-5.188464-15.657019 16.516037 16.516037 0 0 0-11.739901-5.188464h-5.188464v28.862977a21.200544 21.200544 0 0 0 2.565598 13.045607c2.599959 2.599959 5.188464 2.599959 10.388381 2.599959a54.896924 54.896924 0 0 0 27.419828-7.834237 89.864649 89.864649 0 0 0 22.197004-26.114122l10.376927 6.322367-16.871097 43.05394z m-87.447948 0v-15.737194c5.188464 0 9.16285-1.328613 10.376928-3.928572a28.931698 28.931698 0 0 0 3.905664-18.3257v-69.213876h-2.599958a31.359853 31.359853 0 0 0-19.574138 5.188464 79.842782 79.842782 0 0 0-14.385674 20.856937l-10.548731-5.325907 13.171597-37.796755h96.62225l14.33986 37.796755-11.728448 5.17701a44.943778 44.943778 0 0 0-14.37422-20.856936 31.451482 31.451482 0 0 0-19.597045-5.188464h-1.397335v69.305505a48.276765 48.276765 0 0 0 2.599959 18.325699 14.110789 14.110789 0 0 0 11.728448 3.905665v15.668473z m-214.089984 0v-15.737194a16.034987 16.034987 0 0 0 11.728448-3.928572 48.471475 48.471475 0 0 0 2.588505-18.3257v-69.213876h-1.305706a31.38276 31.38276 0 0 0-19.574138 5.188464 44.806335 44.806335 0 0 0-14.374221 20.856937l-11.70554-5.222825 13.034154-37.796755h97.905049l13.079968 37.796755-11.728448 5.188464a44.771975 44.771975 0 0 0-14.37422-20.86839 27.637446 27.637446 0 0 0-18.3257-5.188464h-2.599958v69.305505a29.172223 29.172223 0 0 0 3.905664 18.325699c1.328613 2.565598 5.188464 3.894211 10.376928 3.894211v15.679927zM20.238444 461.234949l2.531238-2.496877c-1.271345-1.259892-3.802583-2.519784-5.051021-3.791129a6.65452 6.65452 0 0 1-2.519784-5.051021 13.652646 13.652646 0 0 1 1.282799-13.973345 25.472722 25.472722 0 0 1 13.984799-11.453563 24.396087 24.396087 0 0 1 16.412955 0 20.169723 20.169723 0 0 1 11.453562 11.453563c0 1.271345 1.294253 2.50833 1.294253 3.791129v5.280092l1.271345-0.229071 1.271346 2.531237-11.373388 8.865057-3.802582-3.791129a33.879637 33.879637 0 0 0 6.162016-7.628073v-7.605165a6.963766 6.963766 0 0 0-6.162016-3.791129 23.033114 23.033114 0 0 0-12.702001 1.271346 41.106835 41.106835 0 0 0-11.453562 6.150562 10.422742 10.422742 0 0 0-1.282799 8.876511c1.282799 1.271345 2.531237 3.791129 3.82549 3.791129a5.726781 5.726781 0 0 0 6.150563 0 4.432529 4.432529 0 0 0 2.531237-1.271345 2.359434 2.359434 0 0 0 0.950646-1.889838 2.34798 2.34798 0 0 0-0.950646-1.901291l5.039567-2.496877 6.425449 16.401501-4.890671 2.622866c-1.259892-1.259892-1.259892-2.519784-2.496877-2.519784h-5.062474l-10.090589 5.039568z m558.487146 3.802583c0-2.531237 0-3.802583-1.271346-5.039568l-5.05102-2.50833-16.412955-5.039567c-2.439609-1.294253-4.947939-2.565598-6.162017-1.294253-1.248438 0-1.248438 1.271345-2.519783 2.531238l-5.131196-0.985007 11.15577-30.477929 12.679093-1.294252 1.294252 3.802582a11.453562 11.453562 0 0 0-8.87651 3.814037 12.679093 12.679093 0 0 0-5.051021 6.150562v3.814037c0 1.248438 1.294253 2.50833 3.82549 2.50833l6.150562 2.519783v-1.202624c1.282799-2.565598 1.282799-3.802583 0-5.05102 0-1.248438-2.542691-2.531237-5.05102-3.79113l1.282798-2.519783 20.330073 6.150563-1.259891 3.802582a5.726781 5.726781 0 0 0-6.162017 0 2.703041 2.703041 0 0 0-2.496877 2.519784l-1.271345 1.271345 7.616619 2.531238a13.847357 13.847357 0 0 0 6.162016 1.271345l2.519784-2.531237 5.039567 1.271345-6.150562 19.035821z m-395.216617-13.561018a318.592286 318.592286 0 0 1-7.536444-33.639112 296.864878 296.864878 0 0 0 40.923578 12.18659 312.750969 312.750969 0 0 0 9.048314 33.810916 334.13477 334.13477 0 0 1-42.527076-12.301126z m-100.527915-70.679932h-0.194711A219.324262 219.324262 0 0 1 218.763038 148.564155c-40.54561 37.430241-67.896717 110.515421-67.896717 194.630382a370.167676 370.167676 0 0 0 3.962933 54.221164 221.947128 221.947128 0 0 1-53.33924-30.099962 147.980023 147.980023 0 0 0 55.515416 42.630159 317.137683 317.137683 0 0 0 8.406915 34.486675 191.85862 191.85862 0 0 1-82.465648-63.658898z m155.917342 36.926284a333.149763 333.149763 0 0 1-9.35756-79.590803c0-77.403173 25.381094-147.269903 64.72408-189.15558-49.525203 30.466475-85.065606 111.729499-85.065607 206.954415a368.907784 368.907784 0 0 0 4.581425 58.218457 318.409029 318.409029 0 0 1-39.938571-9.895878 349.551264 349.551264 0 0 1-2.66868-43.294465c0-111.248449 53.018539-204.354456 123.813007-228.601647 2.703041 0 5.451896-0.16035 8.20075-0.16035a222.302188 222.302188 0 0 1 218.281989 178.480859c-29.641819 59.203463-117.857155 105.372772-223.424638 108.694305q-9.414828 0.458142-18.772388 0.446689a383.030026 383.030026 0 0 1-40.3509-2.130362z m-233.996275-14.889631l-3.436069-33.020619h5.039567c0 1.282799 0 2.554144 1.271346 2.554144a5.726781 5.726781 0 0 0 6.162016 0L31.726367 371.095415a56.569144 56.569144 0 0 0 6.162017-1.282799c0-1.271345 1.271345-2.519784 0-3.791129l6.310912-1.145357 3.962933 31.6691-12.679093 7.605165-2.519784-3.791129a33.410041 33.410041 0 0 0 6.150563-7.605165 8.384008 8.384008 0 0 0 1.294252-7.628073c0-2.50833 0-3.791129-1.294252-3.791129 0-1.259892-2.519784-1.259892-3.791129 0h-6.162017v2.519784c0 1.271345 1.271345 2.519784 1.271346 3.802583h6.150563v3.917118l-19.035821 2.519784-1.282799-3.802583a9.67826 9.67826 0 0 0 6.162017-2.519784c0-1.271345 1.271345-2.519784 1.271345-3.791129l-1.271345-1.282799-10.102042 1.282799c-1.271345 0-3.791129 0-3.791129 1.271346-1.282799 0-1.282799 1.259892-1.282799 3.802582a26.629532 26.629532 0 0 0 5.039567 7.605165 22.838403 22.838403 0 0 0 8.887964 6.150563l-1.271345 3.802583z m576.469238 1.145357a26.675346 26.675346 0 0 1-16.412955-6.150563 16.642026 16.642026 0 0 1-3.802583-15.141609v-5.039568c1.248438-1.294253 2.519784-2.519784 2.519784-3.814036h-0.229071l-2.496877-1.305706 1.271346-2.554144 16.412954-3.79113v3.79113a20.501876 20.501876 0 0 0-8.784882 5.039567c-2.519784 2.416702-3.814036 3.710954-3.814036 6.150563a11.453562 11.453562 0 0 0 3.814036 8.865057 19.012913 19.012913 0 0 0 12.66764 3.82549 28.255938 28.255938 0 0 0 11.453562-1.271346 14.66056 14.66056 0 0 0 6.162017-8.87651c0-2.428155-1.557684-3.974386-2.531238-6.162017a32.001253 32.001253 0 0 0-6.150563-7.605165l2.496877-3.802583a23.445442 23.445442 0 0 1 10.090588 8.887964 22.838403 22.838403 0 0 1-6.150563 25.381094 18.325699 18.325699 0 0 1-11.900251 4.386715 18.87547 18.87547 0 0 1-4.581425-0.80175z m-17.294879-38.014373l-1.271346-19.035821h5.039568c0 1.248438 0 2.531237 1.271345 2.531238a9.403375 9.403375 0 0 0 6.162017 1.271345h5.051021l-1.282799-15.141609a23.067474 23.067474 0 0 0-10.090589 1.271345c-1.259892 1.248438-2.531237 2.496877-2.531237 3.791129l-5.051021 1.282799-1.271345-20.284258h6.162016c0 2.519784 0 2.519784 1.259892 3.791129h6.162017l16.412954-1.271346c3.802583 0 6.310913 0 7.605165-1.282799 0 0 1.271345-1.282799 0-3.802582h6.150563l1.282799 19.047274h-4.581425a2.714494 2.714494 0 0 0-2.519783-2.531238c0-1.271345-2.451062-1.271345-6.162017-1.271345l-7.731154 1.328613 1.271345 13.973346h7.605165a25.575804 25.575804 0 0 0 6.162017-1.294252 4.673053 4.673053 0 0 0 1.271345-3.802583h4.947939l1.271346 19.047274h-5.028114c0-1.271345-1.271345-2.519784-1.271346-3.791129h-7.788422l-16.412954 1.271345c-3.710954 0-5.039567 0-6.150563 1.294253-1.282799 0-1.282799 1.271345-1.282799 3.779675z m-536.290142-6.517077a20.83403 20.83403 0 0 0 7.639526-3.814036c1.248438-2.416702 2.50833-3.688047 2.50833-6.162017v-1.294252l-24.132656-1.340067a44.909417 44.909417 0 0 0-7.639526 1.282799 5.635153 5.635153 0 0 0-1.271345 3.791129H0l1.271345-20.284259 5.039568 1.271346c0 1.282799 0 2.531237 1.271345 2.531237 1.145356 1.271345 2.439609 1.271345 6.162017 1.271345l24.155562 1.294253a9.495003 9.495003 0 0 0-1.271345-6.150563 12.598918 12.598918 0 0 0-6.162017-5.039567l1.271346-3.802583 12.530197 4.82195-1.271346 31.737821-13.973345 3.791129zM0.206164 322.864464l3.802583-19.03582 5.051021 1.271345v3.871304c1.282799 0 1.282799 1.282799 2.519783 1.282799h1.271346l6.150563-1.282799 2.519783-11.453562-5.051021-2.50833h-1.259891a1.729488 1.729488 0 0 0-1.236985-0.549771 1.740941 1.740941 0 0 0-1.259892 0.492503v0.057268c-1.271345 0-1.271345 1.259892-1.271345 2.519784H5.280092l3.802583-16.412955 5.039567 1.271346a9.380467 9.380467 0 0 0 5.039568 7.639526h1.271345l27.763435 16.412954-1.271346 8.876511-34.280511 5.051021c-3.814036 0-6.162016 1.294253-6.162017 3.814036z m25.266558-13.893171l12.66764-1.271345-11.384841-7.628072z m531.880521-8.945232l5.039567-1.294252c0 2.519784 1.271345 2.519784 2.531237 3.802582h6.162017l16.596212-3.733861a55.160355 55.160355 0 0 0 6.150562-1.271345c0-1.271345 1.294253-2.519784 0-3.791129l6.162017-1.271346 2.531237 19.035821-5.051021 1.271345c0-2.519784-1.248438-2.519784-2.496876-3.802583h-6.162017l-16.412954 3.802583a54.175349 54.175349 0 0 0-6.162017 1.271345c0 1.271345-1.271345 2.519784 0 3.814037l-5.039567 1.202624z m413.897376 42.37818l-3.928571-9.162849a38.449608 38.449608 0 0 0 18.325699 0 9.311746 9.311746 0 0 0 3.905665-7.822783 29.240944 29.240944 0 0 0 1.317159-9.16285v-2.599959c-6.33382 3.905665-15.668473 9.16285-24.831322 14.374221a121.339038 121.339038 0 0 1-26.091215 13.034154l-23.50271 9.094128a115.577896 115.577896 0 0 0-6.33382-13.034154l-5.53207-7.513537a179.820926 179.820926 0 0 0 50.933991-18.325699v-0.194711a261.725349 261.725349 0 0 0 31.336946-20.902751c0-1.305706-1.31716-2.599959-1.31716-3.905664q-15.565391 9.792796-27.431281 15.679926a159.960449 159.960449 0 0 1-35.265518 14.374221l-3.905665-7.84569c-1.305706-1.305706-3.905665-6.33382-7.834236-11.728448a71.195343 71.195343 0 0 0 19.597045-5.188464 100.791347 100.791347 0 0 0 19.574137-7.822783 209.668909 209.668909 0 0 0 23.491256-13.034153l-2.588505-1.305706c-9.16285 3.905665-15.565391 5.188464-20.86839 7.822783-3.905665 1.328613-11.739901 2.599959-23.525617 6.333819a18.463142 18.463142 0 0 0-2.577051-7.822782c-1.328613-2.599959-3.928572-6.33382-7.857144-13.045608a215.55604 215.55604 0 0 1 23.50271-3.917118 128.864028 128.864028 0 0 0 39.159729-14.374221H935.75603v-20.616412h109.690765v20.868391h-44.302378c2.577051 1.305706 5.188464 3.894211 7.834236 5.188463l-19.574138 11.728448a25.037487 25.037487 0 0 1 10.376928 9.16285l3.905664 5.188463a261.358835 261.358835 0 0 0 24.728241-19.471055l9.16285-9.16285c1.305706 2.599959 3.894211 3.905665 5.188464 6.33382 1.305706 1.305706 6.322366 5.188464 13.045607 10.376927-7.857144 5.188464-15.679927 10.388381-22.197004 15.576845 1.305706 3.905665 3.905665 9.16285 6.33382 16.871097a56.328619 56.328619 0 0 0 15.668473 22.197003 98.947324 98.947324 0 0 0 24.911498 15.840277 81.423374 81.423374 0 0 0-6.33382 9.16285 120.903802 120.903802 0 0 0-9.162849 11.739901 162.640583 162.640583 0 0 1-26.182844-20.86839 92.487515 92.487515 0 0 1-13.079968-18.3257c-2.588505-7.822783-6.322366-15.576845-9.162849-26.091215l-6.33382 3.894212v9.162849a45.20721 45.20721 0 0 1 1.317159 15.668473c0 7.84569-1.31716 14.374221-1.317159 19.585592a26.870057 26.870057 0 0 1-7.857144 13.034154 49.926078 49.926078 0 0 1-27.431281 6.333819 41.232824 41.232824 0 0 0-3.859851-15.405041z m239.929221 14.775096a209.474199 209.474199 0 0 0-27.431281-1.305706 48.55165 48.55165 0 0 1-15.576845-2.599959 17.478136 17.478136 0 0 1-6.322366-7.822783 25.438362 25.438362 0 0 1-1.305706-10.376927v-29.069141h-35.380054v3.905664h-22.277178v-111.95857h57.473975v-25.988132h22.174096v26.091214h62.57081v112.24491h-22.128282v-3.894212h-40.465435v20.856937c0 1.328613 1.328613 3.894211 1.328613 5.17701 1.397335 1.31716 3.894211 1.31716 7.822783 1.31716l20.902751 1.328613h18.325699a64.609544 64.609544 0 0 0 9.16285-3.928572 12.702 12.702 0 0 0 3.905665-10.376927l1.31716-7.822783a190.461286 190.461286 0 0 0 22.231364 11.648273 75.650778 75.650778 0 0 1-9.16285 23.514163 34.475222 34.475222 0 0 1-7.834237 6.33382 80.346739 80.346739 0 0 1-13.05706 2.565598z m-28.633906-71.939824h40.465436v-22.277179h-40.476889z m-57.405253 0h35.276971v-22.277179h-35.299878z m57.405253-43.053941h40.465436v-22.311539h-40.476889z m-57.405253 0h35.276971v-22.311539h-35.299878z m655.407189 105.475854a40.980845 40.980845 0 0 0-2.599959-10.38838l-3.905665-6.322367h16.871097c3.802583 0 5.085382 0 6.322367-1.305706s1.31716-3.894211 1.317159-7.834236V203.071657h-105.647657l-23.433989 1.328614v-23.468349l23.50271 1.305706h108.45378l20.902751-1.305706-1.328613 20.891297v131.715965a28.931698 28.931698 0 0 1-1.271345 11.659727 49.38776 49.38776 0 0 1-7.822783 6.322366 95.121834 95.121834 0 0 1-30.019787 5.188464 25.816329 25.816329 0 0 0-1.385881-9.369014z m-172.341751 0.423782c-1.31716-2.588505-3.928572-6.322366-6.33382-11.728447a428.970264 428.970264 0 0 0-49.639738 3.814036 303.255966 303.255966 0 0 0-39.159729 3.894211 91.261983 91.261983 0 0 0-16.882551 2.599959 121.739912 121.739912 0 0 0-6.33382-18.3257l-3.894211-6.33382a95.900676 95.900676 0 0 0 14.362767-9.16285l-0.332153-0.229071a106.174521 106.174521 0 0 0 10.376927-11.739901 198.261161 198.261161 0 0 0 14.465849-17.042901c3.894211-6.322366 7.834237-13.034154 11.728448-20.856936a163.854661 163.854661 0 0 0 6.33382-15.565391l1.305706-3.905665A154.875068 154.875068 0 0 0 1569.138019 257.991488a50.785095 50.785095 0 0 1-6.322367 7.857144l-9.162849 14.37422q-6.070388 9.460642-13.045608 18.3257a270.853838 270.853838 0 0 1-19.597045 20.86839c23.525617 0 46.959605-1.31716 69.213877-2.599959a195.855913 195.855913 0 0 1-10.376928-16.871097l-7.84569-9.162849a57.267811 57.267811 0 0 0 16.871097-9.16285l3.905665-2.577052q25.449815 35.276972 39.159729 58.733867l-15.668473 11.728448-5.188464 5.188464a22.048107 22.048107 0 0 1-2.771762-6.665974z m-203.793232-1.786755a42.618705 42.618705 0 0 0-3.894211-13.034154l-2.599958-6.33382a35.735114 35.735114 0 0 0 11.728447 1.305706c3.905665 0 7.822783 0 7.822783-1.305706a7.788422 7.788422 0 0 0 1.31716-5.188464v-114.993764h-104.364859v26.091215a6.665973 6.665973 0 0 0 5.188464-2.588505 34.360687 34.360687 0 0 0 10.376927-7.834237 95.935037 95.935037 0 0 0 9.16285 15.565391 29.023327 29.023327 0 0 0 1.305706-10.376927 19.115995 19.115995 0 0 0 1.305706-9.16285v-7.834237a63.624538 63.624538 0 0 0 23.525617 3.917119 16.550397 16.550397 0 0 0-1.340067 7.822783 21.131822 21.131822 0 0 0-1.305706 5.188463l-2.599958 10.376928a37.418788 37.418788 0 0 0 13.045607-7.84569l3.940025-2.577052a90.76948 90.76948 0 0 1 7.376094 12.266765c1.31716-9.16285 2.599959-15.679927 2.599959-19.574138v-5.165556a145.689311 145.689311 0 0 0 22.174096 2.565598v6.33382l-2.473969 11.808622a76.521249 76.521249 0 0 1-2.588505 18.3257l-2.599959 11.728447a149.549161 149.549161 0 0 1 13.079968 24.842777l3.894211 6.33382a92.418793 92.418793 0 0 0-16.871097 15.565391 34.612665 34.612665 0 0 1-3.905664-9.16285l-5.188464-10.376927c-6.65452 11.728448-10.376927 18.325699-13.045607 22.174096a43.317372 43.317372 0 0 1-7.84569 10.376927 23.101835 23.101835 0 0 0-6.33382-5.188463c-1.294253-2.737401-5.33736-5.188464-11.728448-9.16285a82.591637 82.591637 0 0 0 14.374221-16.882551 63.303838 63.303838 0 0 0 7.84569-16.859643l2.622865-9.16285a152.057492 152.057492 0 0 0-6.33382-14.374221c-2.588505-1.31716-5.33736-6.539984-11.728447-14.37422a65.972518 65.972518 0 0 1-3.905665 15.576844l-1.328613 6.322367c3.928572 9.16285 9.16285 16.882551 14.37422 27.431281a54.266978 54.266978 0 0 0-14.37422 9.16285l-5.188464 3.905665a46.054774 46.054774 0 0 0-1.328613-7.822783l-3.081008-5.635153a65.147862 65.147862 0 0 0-3.928572 9.16285c-2.577051 2.634319-6.620159 9.16285-13.045607 18.325699a29.366933 29.366933 0 0 1-3.894212-6.33382 72.810295 72.810295 0 0 1-10.38838-10.38838v24.670972l1.317159 24.808416-24.877137 0.206164v-165.733044l22.197004 1.305706h107.125167l22.197003-1.305706-1.305706 23.502709v123.893182a35.803835 35.803835 0 0 1-1.305706 11.739901c0 2.588505-3.905665 5.17701-9.16285 7.822783a199.143086 199.143086 0 0 1-24.785508 3.894212 47.956065 47.956065 0 0 1-1.328613-7.754062z m-90.082266-49.880264a100.161401 100.161401 0 0 0 10.376927-14.362767 84.000425 84.000425 0 0 0 7.834237-18.325699c-7.834237-11.739901-11.739901-18.325699-13.045608-20.914205l-5.188463-6.322366z m-455.679971 56.431701v-3.894211h-110.973564v2.565598h-22.105375v-170.887148h156.616009l-1.305706 20.914205v129.207635l1.305706 22.197003z m-110.904843-24.796962h110.973564V201.525427h-110.973564z m-195.638296-45.814249l21.589965-20.284258-11.453562 3.791129c-3.699501 0-6.162016 1.248438-6.162017 2.519783-1.271345 0-1.271345 1.271345-1.271345 3.802583l-3.802583 1.271345-5.039567-13.973345 6.150563-1.271346a4.581425 4.581425 0 0 0 1.271345 2.50833 21.922118 21.922118 0 0 0 7.639526-1.282799l29.19513-7.662433 1.282799 7.628073-28.095588 25.36964 20.330073-5.028114a7.467723 7.467723 0 0 0 6.150563-2.50833v-3.814036l5.039567-1.271346 3.814037 13.973346-5.051021 1.294253a2.760308 2.760308 0 0 0-2.519784-2.519784c-1.145356-1.259892-2.428155 0-6.162016 0l-16.412955 5.039567c-2.439609 1.259892-4.936485 1.259892-6.150563 2.531238v3.791129l-5.051021 1.282799z m-516.555654 12.598919v-5.039568a43.69534 43.69534 0 0 0 7.605165-1.294252 12.598918 12.598918 0 0 0 5.039568-6.162017l-22.907125-7.605165a21.819036 21.819036 0 0 0-7.639526-1.271345l-2.496876 2.496876-5.051021-1.271345 6.162016-19.047274 5.051021 2.416701a4.6616 4.6616 0 0 0 1.259892 3.814037c0 1.248438 2.565598 1.248438 5.051021 2.50833l22.998753 7.605165a13.53811 13.53811 0 0 0 1.271345-6.162016 26.17139 26.17139 0 0 0-5.039567-7.605166l2.473969-2.645772 11.556645 8.819242-11.453563 30.466476z m1644.25048 30.707v-69.190969h93.919209l-1.317159 16.88255v33.994173l1.317159 18.325699z m22.18555-22.231364h48.288218v-24.774055H1701.99934z m-951.642121 14.397127v-21.097461l16.88255 1.305706h24.785509v-26.022493h-33.765102v-20.616412l15.668474 1.328613h18.325699v-19.654313h-23.50271l-15.679926 1.31716v-22.231364l15.679926 1.305706h69.213877l16.88255-1.305706v22.18555l-15.668473-1.305706h-24.739694v19.574137h23.720327l11.728448-1.328613v20.914205H835.537361c2.588505 2.634319 3.905665 3.905665 3.905665 5.188463l6.33382 6.322367 5.188463 3.905664c-2.725948 2.634319-5.188464 6.562891-9.162849 10.376928l14.362767-1.328614v20.971473z m64.025412-19.574137l18.256978-0.240525c-1.31716-2.485423-2.588505-3.791129-3.894211-6.322367a145.265529 145.265529 0 0 0-11.739901-10.376927c2.634319-2.725948 6.539984-5.188464 10.388381-9.16285H814.348271zM49.490842 250.558126v-3.802582a22.907124 22.907124 0 0 0 8.876511-1.271346c2.290712-0.985006 3.802583-3.814036 5.051021-5.039567 0-2.565598 1.271345-3.791129 0-5.051021 0-1.271345 0-2.554144-1.271346-2.554144-2.542691-1.362974-5.039567 1.145356-10.090588 6.150562a1.259892 1.259892 0 0 1-0.35506 0.927739 1.236985 1.236985 0 0 1-0.893378 0.343607 39.961478 39.961478 0 0 1-8.887964 7.605165 24.705334 24.705334 0 0 1-8.876511-1.271345 16.790922 16.790922 0 0 1-7.605165-8.887964 13.446482 13.446482 0 0 1 1.282799-11.453563 6.711787 6.711787 0 0 1 2.519783-5.039567 17.306332 17.306332 0 0 1 5.051021-3.733861l-2.496876-1.271346 1.271345-3.710954 16.550397 4.100375v3.802583a37.143902 37.143902 0 0 0-11.453562 2.519784 12.759268 12.759268 0 0 0-6.265098 5.051021c0 2.439609-1.271345 3.699501 0 6.150563a2.748855 2.748855 0 0 0 2.519783 2.519783c2.645773 1.145356 5.051021 0 8.887965-5.028114a1.225531 1.225531 0 0 0 0.916285-0.35506 1.214078 1.214078 0 0 0 0.35506-0.916285 18.486049 18.486049 0 0 0 5.039567-5.051021c0.985006-0.962099 2.496877-1.248438 2.496877-2.519784h5.039567a13.870264 13.870264 0 0 1 6.162017 1.294253 13.0227 13.0227 0 0 1 6.162016 7.605165 15.783009 15.783009 0 0 1 0 10.090589l-7.410455 7.673886 2.508331 1.248438-2.531238 3.802583z m525.180187-2.66868h-32.677013l-3.871304-7.605165 26.675346-22.907124c2.519784-2.50833 3.791129-3.791129 3.791129-6.150563l5.039568-2.542691 6.162016 17.764475-4.947939 2.485423v-1.362974c0-1.271345-1.271345-1.271345-1.271345-2.519784h-2.531237a1.397335 1.397335 0 0 1-0.343607 0.904832 1.248438 1.248438 0 0 1-0.927739 0.35506l-5.039567 3.791129 3.802583 11.453562h6.150562l1.282799-1.282799c1.271345 0 2.519784 0 2.519784-1.294252s0-1.271345-1.271345-3.791129l5.039567-1.271346 6.150563 15.221785-5.028114 1.294252c-1.466056-2.565598-3.98584-3.82549-9.094128-2.565598z m-24.968766-6.150563h13.847357l-3.814036-7.84569z m1053.120682 18.451689a87.573936 87.573936 0 0 1-18.325699-20.902751 84.91671 84.91671 0 0 1-11.659727-20.879844c-2.599959-6.322366-3.928572-13.034154-5.188463-16.871097a198.5475 198.5475 0 0 1-3.905665-24.705333 150.179107 150.179107 0 0 0 24.762601 1.317159v7.834237a16.630572 16.630572 0 0 0 1.328614 7.834236 58.413167 58.413167 0 0 0 3.905664 16.871097 73.944197 73.944197 0 0 0 13.034154 19.597045 95.23637 95.23637 0 0 0 13.045607 11.728448 73.852569 73.852569 0 0 0 9.16285 5.188464 56.259897 56.259897 0 0 0 14.362767 5.188463 22.907124 22.907124 0 0 1-5.188464 6.322367c-1.328613 2.588505-3.905665 9.16285-9.162849 18.325699a112.050199 112.050199 0 0 1-26.343193-16.871097z m-120.12496 14.454396a130.673691 130.673691 0 0 0-13.034154-16.882551l-3.974386-3.98584a101.524375 101.524375 0 0 0 22.197004-15.668473 317.985247 317.985247 0 0 0 20.86839-24.842776 137.442746 137.442746 0 0 0 14.37422-27.408374l1.305707-5.188464a183.818219 183.818219 0 0 0 23.548523 10.308206c-6.33382 13.034154-13.034154 22.18555-18.325699 31.325492a153.615176 153.615176 0 0 1-20.86839 27.419828 230.445671 230.445671 0 0 1-26.114122 24.808416v0.103082z m181.5046-31.382761v-22.197003h121.407759v22.197003z m-614.850125-6.665973l1.305706-11.728448v-12.988339H932.033622v23.365267l-23.651605 0.125989v-45.653899l20.86839 1.305706h48.288218a30.306126 30.306126 0 0 0-9.16285-9.16285 27.84361 27.84361 0 0 0 6.33382-3.905664c2.599959-1.305706 6.33382-3.905665 13.045607-7.822783 7.84569 7.822783 14.374221 13.045607 18.3257 16.88255a18.325699 18.325699 0 0 0-5.199917 3.905665h52.388593l19.574138-1.31716v46.833616z m-951.41305-46.04332l-30.466475-28.072681-3.917118-3.573511 3.802582-5.039568 28.061228-28.084134 3.802582-5.039567 5.039568 5.039567 29.172222 28.084134 5.039568 3.791129-5.039568 6.162017v-1.282799l-26.675346 26.663893 1.271345 1.271345-5.05102 5.039567zM73.646405 157.727005l29.229491 28.003959 25.404-26.675346-29.19513-28.084134z m427.824908 36.926284a91.536869 91.536869 0 0 1-7.628072-6.150563c0-1.259892 1.271345-1.259892 1.271345-2.50833 1.282799 0 1.282799-1.294253 2.496877-2.519783v-2.519784l3.825489 3.791129c1.271345 1.294253 1.271345 1.294253 2.496877 1.294253a1.35152 1.35152 0 0 0 0.916285-0.343607 1.214078 1.214078 0 0 0 0.343607-0.904832l28.061227-25.36964-24.052481-25.381094-6.448355-6.402541 6.162016-5.051021 5.051021 6.150563 24.121202 25.36964 5.073928 5.062475-5.039567 4.947938-30.432115 28.049774-2.519783 2.519784zM95.282184 177.965449l5.039567-3.814036 5.051021-6.150563-6.162016-5.039567-3.802583 3.802582-3.802583 3.791129-5.039567-3.791129 3.82549-3.802582 5.039567-5.051021-5.039567-3.802583-5.211371 4.947939-3.791129 5.051021-5.039568-5.051021 3.79113-3.791129 16.412954-16.401501 3.814036-3.802583 5.051021 3.802583-3.710954 3.871304-6.162016 6.150563 5.039567 3.802582 5.051021-5.039567 2.50833-3.82549 5.039567 5.039568-3.802582 2.531237h7.605165v5.039567l3.814036-3.791129 3.802583 3.791129-3.802583 3.814036-16.412954 17.764475-4.066015 3.733862z m8.819243-21.475429l6.162016 6.162017 3.917118-4.947939h-7.639526a4.707414 4.707414 0 0 0 1.271346-3.791129z m389.799081 18.050814l-12.679093-13.973346-3.791129-3.791129 3.791129-3.974386 8.876511-7.628072 3.802582-3.607872 3.791129 5.039567 12.598919 12.598918 5.039567 5.039568-5.039567 3.882757-7.628073 7.605166-3.802582 3.802582z m-6.322366-16.825283l11.453562 11.453562 6.162017-6.162016-11.453563-11.453562z m27.923785 1.259892l-17.787382-19.047274-5.039568-5.039567 5.039568-5.039568 5.05102 5.016661 17.787383 19.03582 5.039567 5.051021-5.039567 5.039567z m-356.801369-21.463975l-2.508331-1.294253a62.994592 62.994592 0 0 0 12.679094-13.973346l-0.3207 0.229071a114.169108 114.169108 0 0 0 6.162017-10.090588l-1.271346-1.294252a53.831742 53.831742 0 0 1-6.150563 8.87651 41.633699 41.633699 0 0 1-7.628072 10.090589l-2.531237-2.519784a15.164516 15.164516 0 0 0-3.802583-2.519784c1.282799-1.259892 4.111829-2.82903 5.051021-3.791129l5.039567-5.039567 3.802583-7.616619-11.453562 11.453562-2.485423-2.496876a15.004166 15.004166 0 0 0-3.802583-2.519784c1.145356 0 3.722408-2.519784 6.150563-3.791129a71.3786 71.3786 0 0 0 8.887964-10.102042l-7.605165 3.791129-3.791129 2.531237-3.802583-6.162016 5.039568-1.271346 22.907124-12.679093 5.039567-2.519784 2.50833 6.150563-5.051021 2.531238-7.639526 3.791129h2.531238a28.049774 28.049774 0 0 1-3.802583 6.150562c2.565598 0 3.802583 1.271345 5.051021 1.271346l1.271345 1.259892a70.851736 70.851736 0 0 1 5.039568-10.090589l1.271345-3.802582a4.512703 4.512703 0 0 0 2.519784 1.305706 12.049147 12.049147 0 0 1 5.051021 1.271345l-3.802583 7.605166 3.802583 3.814036 7.628072 3.791129h10.102042a4.673053 4.673053 0 0 1-1.271345 3.791129v5.051021a83.026872 83.026872 0 0 1-11.453563-2.519784c-2.439609 0-3.791129-1.374427-6.150562-2.531237s-3.710954-3.688047-6.150563-6.150563l-1.282799 2.519784c0 1.248438 1.282799 1.248438 1.282799 2.519783a18.130989 18.130989 0 0 0 2.50833 3.802583c1.271345 2.554144 1.271345 3.791129 2.531237 5.039567v5.005207c-1.374427 2.439609-3.802583 3.699501-7.628072 6.150563-1.271345-2.519784-2.519784-3.791129-3.802583-3.791129l-2.50833-1.271345c3.802583-1.271345 5.051021-2.531237 5.051021-3.814037 1.282799 0 1.282799-1.248438 0-2.496876v-2.359434l-1.271346-1.294253a71.435867 71.435867 0 0 1-5.039567 8.876511c-1.271345 2.519784-3.802583 5.051021-5.039567 7.628073l-6.162017 6.150562c-1.145356-1.431695-2.359434-2.771762-3.653686-2.771762z m277.897779-1.443149c1.271345-1.259892 0-2.554144 0-5.039568a108.889016 108.889016 0 0 0-15.233238-6.150563 53.579764 53.579764 0 0 1-11.453562-5.039567c-2.451062 0-3.722408-1.282799-6.150563-1.282799a17.00854 17.00854 0 0 0 1.271345-6.150563v-2.577051h5.039568c1.282799-1.282799 3.802583-1.282799 5.039567-2.519784a9.735528 9.735528 0 0 0 6.162017-2.519784l7.605165-3.791129a15.187423 15.187423 0 0 0 3.802583-2.519783l1.271345-1.282799a26.343193 26.343193 0 0 0 5.051021 7.605165 3.894211 3.894211 0 0 1-2.50833 1.271345l-12.679094 6.162017a17.913371 17.913371 0 0 0-7.616618 2.519783c6.322366 3.917118 14.076428 6.356727 20.330072 10.090589 0-3.688047 0-4.947939-1.271345-6.162017v-3.917118h7.49063a187.712431 187.712431 0 0 1 2.531237 21.578511 21.395254 21.395254 0 0 1-6.150563 1.259892l-2.50833 1.282799z m12.805082-25.369641a32.21887 32.21887 0 0 1-2.531237-8.887964 8.017494 8.017494 0 0 1 0-7.605165v-5.01666a53.350693 53.350693 0 0 0 2.531237-7.639526l7.559351 3.779675c0 1.236985-1.271345 1.236985-1.271345 2.519784a3.882758 3.882758 0 0 1-1.282799 2.50833 9.460642 9.460642 0 0 1-1.271345 5.039567 19.757395 19.757395 0 0 0 1.271345 7.616619 15.198877 15.198877 0 0 0 2.542691 5.085382 4.455436 4.455436 0 0 0 1.271345 2.519784l3.802583 3.802582c-1.248438 1.294253-1.248438 1.294253-2.531237 1.294253a21.063101 21.063101 0 0 0-5.039568 3.791129 31.588924 31.588924 0 0 1-5.188463-8.830697z m-307.138723-5.028113l-3.802583-6.150563-1.271345-3.791129 6.162016-2.531238 13.9848-7.616618c-1.271345 0-2.531237-1.259892-3.802583-1.259892l1.271345-1.294253c0-1.282799 1.282799-2.565598 2.531238-5.051021 3.791129 1.248438 6.310913 1.248438 7.605165 2.50833a1.225531 1.225531 0 0 1-0.263432 0.824657l15.485216-7.135569 5.051021-3.791129 2.531237 3.791129 2.50833 6.150563 2.519784 2.519783-7.605165 3.802583-1.282799-2.519784-2.50833-3.802582-34.17743 17.753021 1.271346 3.791129 1.374427 3.85985-6.288006 2.496877z m214.456498-0.332154v-2.519783a4.673053 4.673053 0 0 0-1.271345-3.802583v-2.519784c1.271345 0 2.496877 1.271345 3.791129 1.271346h2.519783c0-1.271345 0-1.271345 1.282799-2.496877l5.051021-35.506043-34.223243-5.062474-1.271346 7.628072h1.271346c1.282799 0 2.50833-1.271345 3.802582-1.271345a6.68888 6.68888 0 0 1 2.50833 5.039567 4.684507 4.684507 0 0 0 1.282799-3.791129 4.14619 4.14619 0 0 1 1.294253-2.531237v-2.519784a13.53811 13.53811 0 0 0 7.605165 2.519784c0 1.294253-1.271345 1.294253-1.271345 2.531237v1.271346l-1.271346 3.825489c1.271345-1.282799 3.791129-1.282799 3.791129-2.531237h1.248439c1.271345 1.282799 2.519784 2.531237 2.519783 3.802583a14.007707 14.007707 0 0 0 1.271346-6.150563l1.282799-1.282799c2.519784 1.282799 5.039567 1.282799 7.628072 2.50833a1.214078 1.214078 0 0 0-0.904831 0.355061 1.236985 1.236985 0 0 0-0.400875 0.904831l-1.271345 3.802583c0 2.519784-1.271345 3.791129-1.271346 5.051021l-2.531237 3.791129a76.887763 76.887763 0 0 1 3.802583 8.87651v1.271346a73.302798 73.302798 0 0 0-6.162017 5.039567v-3.791129l-1.271345-3.814036a47.738447 47.738447 0 0 1-5.039568 6.162016c-1.271345 1.294253-2.531237 2.519784-3.802582 2.519784l-1.271346-1.271346c-1.282799-1.294253-2.50833-1.294253-3.802582-3.814036a17.466682 17.466682 0 0 0 5.051021-3.791129 17.180343 17.180343 0 0 1 3.791129-5.051021l1.271345-2.519783c0-2.519784-1.271345-3.791129-1.271345-5.039568s-1.271345-2.519784-2.519784-5.039567c-1.271345 2.496877-2.496877 3.791129-2.496877 5.039567l-1.294252 1.294253c1.294253 2.496877 2.531237 6.162016 3.802583 8.865057l-7.605166 3.814036v-5.096835c-1.271345 1.271345-1.271345 2.519784-2.531237 2.519784 0 1.271345-2.531237 2.519784-5.039567 5.051021a1.225531 1.225531 0 0 0-0.355061-0.904832 1.225531 1.225531 0 0 0-0.893378-0.35506c0-1.271345-1.271345-2.519784-2.531237-3.791129l-1.271345 7.605165-1.271346 7.616619-7.639526-0.881925 1.282799-7.799875 6.162017-36.926285 1.271345-7.605165 7.605166 1.282799 34.291965 6.150563 7.616619 1.294252-1.271346 6.150563-6.162016 39.35444c0 1.294253 0 2.519784-1.271346 2.519783 0 1.259892-1.282799 2.519784-3.802582 2.519784z m-27.900877-22.483342c2.542691-1.282799 3.802583-2.531237 3.802582-3.802583a17.294879 17.294879 0 0 0 3.814037-5.039567 51.048527 51.048527 0 0 1-2.519784-7.605165l-1.282799-2.519784z m-69.935451 20.066641a4.466889 4.466889 0 0 1-2.496877-1.271346c0-1.294253-1.271345-2.531237-1.271345-3.802582l-1.271345-8.887965-11.453563 2.508331-7.605165 1.305706-1.271345-5.039568-3.802583-24.155562-1.145356-4.799043 6.150563-1.271345 12.679093-1.294253v-3.791129l-1.294252-5.051021 7.605165-1.271345 1.282799 5.039567v3.791129l16.412954-2.50833 5.051021-1.282799v4.936485l3.791129 24.14411 1.271346 6.150562-7.628073 1.271346v-1.271346l-12.679093 1.271346 1.294253 6.162016v1.271346c0 1.294253 1.271345 1.294253 2.50833 1.294252l7.639526-1.294252a13.160143 13.160143 0 0 0 5.039567-1.271346c1.271345 0 2.50833-1.271345 3.802583-1.271345v-6.150563a31.921078 31.921078 0 0 0 8.87651 2.554144c-1.282799 3.802583-1.282799 7.616619-2.519783 7.616619a2.771762 2.771762 0 0 1-2.519784 2.519784c0 1.271345-1.282799 1.271345-3.802583 1.271345-1.294253 1.294253-5.039567 1.294253-8.87651 1.294253a24.968766 24.968766 0 0 1-8.876511 1.271345 6.791962 6.791962 0 0 1-3.012287 0.962099 2.783216 2.783216 0 0 1-2.050187-1.03082z m-18.955645-25.01458l1.294252 7.49063 11.453562-2.519784-1.294252-6.162017z m19.03582-2.577052l1.282799 6.288006 12.66764-2.565598-1.271346-6.162016z m-21.555604-10.308205l1.271345 6.36818 11.453562-1.271345-1.271345-7.605166z m19.024367-3.768222l1.271345 7.628072 13.973346-2.519784-1.294253-7.628072z m153.615176 28.221577L408.777634 88.192429a21.200544 21.200544 0 0 0 8.876511-1.271346 88.891096 88.891096 0 0 0 10.102042-3.791129 55.985012 55.985012 0 0 0 8.87651-5.028113l1.271346-1.282799a12.598918 12.598918 0 0 0 5.051021 6.162016 70.130161 70.130161 0 0 0-10.090588 6.150563 61.998132 61.998132 0 0 1-10.102042 3.791129 45.436281 45.436281 0 0 1-11.453563 2.531237v0.125989a55.618498 55.618498 0 0 0-1.431695-6.299459z m0 0" fill="#158E7D" p-id="2657"></path></svg>